<?xml version="1.0" encoding="UTF-8" standalone="no"?>
<svg
   xmlns:dc="http://purl.org/dc/elements/1.1/"
   xmlns:cc="http://creativecommons.org/ns#"
   xmlns:rdf="http://www.w3.org/1999/02/22-rdf-syntax-ns#"
   xmlns:svg="http://www.w3.org/2000/svg"
   xmlns="http://www.w3.org/2000/svg"
   xmlns:sodipodi="http://sodipodi.sourceforge.net/DTD/sodipodi-0.dtd"
   xmlns:inkscape="http://www.inkscape.org/namespaces/inkscape"
   version="1.1"
   x="0px"
   y="0px"
   viewBox="0 0 93.271004 70.601997"
   enable-background="new 0 0 100 100"
   xml:space="preserve"
   id="svg2"
   inkscape:version="0.91 r13725"
   sodipodi:docname="Disconnected.svg"
   width="93.271004"
   height="70.601997"><metadata
     id="metadata18"><rdf:RDF><cc:Work
         rdf:about=""><dc:format>image/svg+xml</dc:format><dc:type
           rdf:resource="http://purl.org/dc/dcmitype/StillImage" /><dc:title></dc:title></cc:Work></rdf:RDF></metadata><defs
     id="defs16" /><sodipodi:namedview
     pagecolor="#ffffff"
     bordercolor="#666666"
     borderopacity="1"
     objecttolerance="10"
     gridtolerance="10"
     guidetolerance="10"
     inkscape:pageopacity="0"
     inkscape:pageshadow="2"
     inkscape:window-width="1920"
     inkscape:window-height="1017"
     id="namedview14"
     showgrid="false"
     fit-margin-top="0"
     fit-margin-left="0"
     fit-margin-right="0"
     fit-margin-bottom="0"
     inkscape:zoom="5.3400704"
     inkscape:cx="-17.347644"
     inkscape:cy="36.268242"
     inkscape:window-x="-8"
     inkscape:window-y="-8"
     inkscape:window-maximized="1"
     inkscape:current-layer="svg2" /><g
     id="g4"
     transform="translate(-2.729,-15)"><g
       id="g6"><path
         d="m 49.877,67.841 c -2.487,0 -4.665,0.87 -6.48,2.648 -1.834,1.778 -2.752,3.862 -2.752,6.268 0,2.42 0.918,4.495 2.752,6.244 1.816,1.729 3.992,2.601 6.48,2.601 2.443,0 4.59,-0.872 6.422,-2.601 1.837,-1.749 2.755,-3.822 2.755,-6.244 0,-2.406 -0.918,-4.49 -2.755,-6.268 -1.832,-1.777 -3.979,-2.648 -6.422,-2.648 z m -6.92,-31.136 c 0.672,2.745 1.437,6.147 2.293,10.187 0.878,4.054 1.798,9.12 2.755,15.207 l 3.687,0 c 0.973,-6.018 1.871,-11.087 2.751,-15.172 0.841,-4.104 1.626,-7.525 2.297,-10.259 0.702,-2.904 1.298,-5.428 1.757,-7.589 0.46,-2.151 0.709,-3.881 0.709,-5.2 0,-2.437 -0.939,-4.528 -2.814,-6.277 C 54.538,15.859 52.344,15 49.822,15 c -2.561,0 -4.744,0.859 -6.578,2.602 -1.831,1.749 -2.729,3.84 -2.729,6.277 0,1.224 0.249,3.029 0.764,5.44 0.516,2.419 1.066,4.873 1.678,7.386 z m 0.317,18.133 c -0.068,-0.323 -0.135,-0.632 -0.202,-0.949 -5.02,1.133 -9.791,3.643 -13.694,7.547 l 5.922,5.816 c 2.685,-2.685 5.96,-4.434 9.418,-5.251 -0.49,-2.593 -0.971,-4.981 -1.444,-7.163 z m -6.765,-32.87 c 0,-1.984 0.432,-3.802 1.275,-5.466 -12.795,2.263 -25.049,8.319 -34.949,18.178 0,0 0,0.106 -0.106,0.106 l 5.922,5.922 c 0,-0.106 0,-0.106 0.106,-0.106 7.969,-8.007 17.736,-13.138 28.017,-15.426 -0.177,-1.274 -0.265,-2.343 -0.265,-3.208 z m 3.49,18.32 c -0.379,-1.557 -0.736,-3.092 -1.085,-4.62 -8.341,1.886 -16.268,6.061 -22.755,12.549 l 5.922,5.816 c 5.342,-5.304 11.877,-8.711 18.753,-10.237 -0.288,-1.239 -0.567,-2.414 -0.835,-3.508 z m 55.79,-5.607 C 86.188,25.119 74.372,19.132 61.997,16.715 c 0.798,1.606 1.212,3.354 1.212,5.253 0,0.989 -0.1,2.144 -0.289,3.459 9.873,2.407 19.235,7.465 26.946,15.176 0.106,0.106 0.106,0.106 0.212,0.211 L 96,34.892 c -0.106,0 -0.211,-0.105 -0.211,-0.211 z m -35.066,1.221 c -0.324,1.373 -0.67,2.816 -1.037,4.333 -0.289,1.178 -0.595,2.457 -0.911,3.815 6.514,1.645 12.681,5.002 17.767,10.089 0.106,0 0.106,0 0.106,0.106 L 82.57,48.323 82.464,48.217 C 76.24,41.992 68.692,37.891 60.723,35.902 Z m 8.522,25.534 c -3.641,-3.641 -8.036,-6.068 -12.684,-7.299 -0.052,0.252 -0.104,0.496 -0.156,0.752 -0.484,2.248 -0.972,4.71 -1.469,7.372 3.102,0.901 6.033,2.564 8.493,4.991 0,0.106 0,0.106 0.106,0.106 l 5.816,-5.816 c 0,-0.106 0,-0.106 -0.106,-0.106 z"
         id="path8"
         inkscape:connector-curvature="0"
         style="clip-rule:evenodd;fill:#000000;fill-rule:evenodd" /></g></g></svg>